<?xml version="1.0" encoding="utf-8"?>
<!-- Generator: Adobe Illustrator 26.5.0, SVG Export Plug-In . SVG Version: 6.00 Build 0)  -->
<svg version="1.1" id="Layer_1" xmlns="http://www.w3.org/2000/svg" xmlns:xlink="http://www.w3.org/1999/xlink" x="0px" y="0px"
	 viewBox="0 0 620.4 296.71" style="enable-background:new 0 0 620.4 296.71;" xml:space="preserve">
<style type="text/css">
	.st0{fill:#FFFFFF;}
</style>
<g>
	<path class="st0" d="M76.3,202.75H22.69v0.04c0,26.44-2.34,45.14,25.01,45.14h7.45c-0.07-1.24-0.22-2.52-0.22-3.8
		C54.94,227.29,63.34,212.29,76.3,202.75z"/>
	<path class="st0" d="M475.95,204.57c0.73-0.62,1.5-1.2,2.26-1.79h-2.26h-48.28c-96.7,0-285.49,0-285.49,0
		c13,9.49,21.36,24.5,21.36,41.37c0,1.24-0.11,2.56-0.22,3.8h285.49h8.22c-0.11-1.24-0.22-2.52-0.22-3.8
		C456.82,228.31,464.27,214.1,475.95,204.57z"/>
	<path class="st0" d="M543.98,202.83h0.04c-0.02-0.01-0.03-0.03-0.04-0.04V202.83z"/>
	<path class="st0" d="M544.02,202.83c12.94,9.5,21.32,24.49,21.32,41.34c0,1.24-0.11,2.56-0.18,3.8h7.45
		c28.48,0,25.01-18.7,25.01-45.14H544.02z"/>
	<path class="st0" d="M180.32,16.98v176.23h417.43V16.98H180.32z M590.45,24.28v38.69C550.14,70.6,514.51,79.16,483.32,88
		c-109.93,31.1-164.77,65.4-175.3,72.54c-0.33,0.21-0.61,0.4-0.86,0.58v0.02c-2.29-1.27-4.6-2.5-6.88-3.78
		c56.96-39.59,126.66-65.51,183.05-81.64c48.94-14.03,87.87-20.65,99.73-22.53c-14.62-3.42-28.67-6.03-41.97-8.08
		c-20.46,4.66-39.7,9.82-57.76,15.31c-115.14,34.96-181.09,82.88-192.75,91.84c-1.93-0.97-3.84-1.93-5.82-2.9l-0.11-0.06
		C367.3,86.37,441.36,59.3,483.32,48.02c17.39-4.66,29.28-6.61,34-7.28c-22.7-2.42-41.72-3.09-54.88-3.17
		c-5.98,1.76-11.96,3.67-17.94,5.74c-42.22,14.58-83.71,36.39-118.51,60.07c-11.78-21.89-24.18-43.54-39.46-60.07
		c-0.77-0.89-1.57-1.74-2.4-2.57c-7.78-6.75-18.61-5.6-30.13-0.5c-1.74,0.77-2.24,1.79-1.68,3.07c0.33,0.71,0.99,1.46,1.95,2.29
		c25.23,20.87,42.82,39.17,62.72,63.96c-2.31,1.66-4.74,3.37-7.06,5.1C291.8,95.22,257.01,66.5,231.9,49.59
		c-11.91-8.05-33.58-6.39-43.28,3.12c-0.39,0.35-0.72,0.69-0.98,1.01V24.28H590.45z M590.45,84.58v14.05
		c-40.01,5.98-75.78,13.04-107.13,20.39c-95.81,22.45-150.6,47.45-160.47,52.17h-0.03c-2.13-1.57-4.38-2.98-6.67-4.53
		c54.24-27.07,113.54-46.4,167.17-60.05c18.39-4.66,36.09-8.66,52.69-12.08C556,90.42,574.39,87.15,590.45,84.58z M187.63,75.78
		V57.33c0.49,0.42,1.17,0.83,2.06,1.21c56.88,25.18,95.75,50.77,112.38,62.13c-3.15,2.4-6.18,4.8-9.16,7.17
		C262.54,108.42,219.88,89,187.63,75.78z M283.26,136.03c-3.2,2.87-6.2,5.62-9.12,8.4v0.06c-27.39-12.3-57.7-22.54-86.51-30.71
		V96.76C238.56,111.96,268.98,127.92,283.26,136.03z M187.63,185.91v-49.35c71.4,11.16,111.57,29.47,129.74,39.81
		c2.34,1.35,4.32,2.53,5.95,3.58l7.44-3.12c0.45-0.16,0.89-0.3,1.33-0.47c53.05-18.89,104.19-31.6,151.23-40.01
		c38.98-6.98,75.1-11.02,107.13-13.24v62.79H187.63z"/>
	<polygon class="st0" points="520.35,244.6 520.46,244.6 520.39,244.57 	"/>
	<path class="st0" d="M109.31,208.56c-20.41,0-37.06,15.96-37.06,35.6c0,19.61,16.65,35.57,37.06,35.57
		c20.41,0,36.99-15.96,36.99-35.57S129.73,208.56,109.31,208.56z M109.31,261.91c-10.22,0-18.55-7.96-18.55-17.75
		c0-9.86,8.29-17.78,18.55-17.78s18.51,7.92,18.51,17.78C127.83,254.02,119.54,261.91,109.31,261.91z"/>
	<path class="st0" d="M511.15,208.56h-0.04h-0.04c-20.45,0-37.03,15.96-37.03,35.6c0,19.65,16.62,35.57,37.03,35.57h0.07
		c20.41,0,37.03-15.96,37.03-35.57S531.56,208.56,511.15,208.56z M511.11,261.91c-10.22,0-18.51-8-18.51-17.75
		c0-9.86,8.29-17.75,18.51-17.78c10.19,0,18.51,7.92,18.51,17.78C529.63,254.02,521.34,261.91,511.11,261.91z"/>
	<path class="st0" d="M170.58,68.52c0-12.01-6.21-17.27-17.64-17.27H97.46c-28.09,0-39.29,17.42-45.76,33.12
		c-9.98,26.15-27.72,73.44-27.72,73.44v35.42l146.6-0.29V68.52z M150.26,114.71H111.2c-13.12,0-16.72,3.51-20.98,7.52l-19.89,19.61
		l-18.46-0.07c0,0.01-0.01,0.02-0.01,0.04v-0.04h0.01c5.81-15.4,13.24-35.1,18.56-49.08c5.25-12.63,11.43-19.9,27.03-19.9h52.8
		V114.71z"/>
</g>
</svg>
